<svg xmlns="http://www.w3.org/2000/svg" viewBox="0 0 190 100" width="190" height="100">
<rect x="0" y="0.0000" width="190" height="7.6923" fill="#B22234" />
<rect x="0" y="7.6923" width="190" height="7.6923" fill="#FFFFFF" />
<rect x="0" y="15.3846" width="190" height="7.6923" fill="#B22234" />
<rect x="0" y="23.0769" width="190" height="7.6923" fill="#FFFFFF" />
<rect x="0" y="30.7692" width="190" height="7.6923" fill="#B22234" />
<rect x="0" y="38.4615" width="190" height="7.6923" fill="#FFFFFF" />
<rect x="0" y="46.1538" width="190" height="7.6923" fill="#B22234" />
<rect x="0" y="53.8462" width="190" height="7.6923" fill="#FFFFFF" />
<rect x="0" y="61.5385" width="190" height="7.6923" fill="#B22234" />
<rect x="0" y="69.2308" width="190" height="7.6923" fill="#FFFFFF" />
<rect x="0" y="76.9231" width="190" height="7.6923" fill="#B22234" />
<rect x="0" y="84.6154" width="190" height="7.6923" fill="#FFFFFF" />
<rect x="0" y="92.3077" width="190" height="7.6923" fill="#B22234" />
<rect x="0" y="0" width="76.0000" height="53.8462" fill="#3C3B6E" />
<polygon points="10.8571,2.3046 11.5486,4.4328 13.7864,4.4328 11.9760,5.7482 12.6675,7.8764 10.8571,6.5611 9.0468,7.8764 9.7383,5.7482 7.9279,4.4328 10.1656,4.4328" fill="#FFFFFF" />
<polygon points="21.7143,2.3046 22.4058,4.4328 24.6435,4.4328 22.8332,5.7482 23.5247,7.8764 21.7143,6.5611 19.9039,7.8764 20.5954,5.7482 18.7850,4.4328 21.0228,4.4328" fill="#FFFFFF" />
<polygon points="32.5714,2.3046 33.2629,4.4328 35.5007,4.4328 33.6903,5.7482 34.3818,7.8764 32.5714,6.5611 30.7610,7.8764 31.4526,5.7482 29.6422,4.4328 31.8799,4.4328" fill="#FFFFFF" />
<polygon points="43.4286,2.3046 44.1201,4.4328 46.3578,4.4328 44.5474,5.7482 45.2390,7.8764 43.4286,6.5611 41.6182,7.8764 42.3097,5.7482 40.4993,4.4328 42.7371,4.4328" fill="#FFFFFF" />
<polygon points="54.2857,2.3046 54.9772,4.4328 57.2150,4.4328 55.4046,5.7482 56.0961,7.8764 54.2857,6.5611 52.4753,7.8764 53.1668,5.7482 51.3565,4.4328 53.5942,4.4328" fill="#FFFFFF" />
<polygon points="65.1429,2.3046 65.8344,4.4328 68.0721,4.4328 66.2617,5.7482 66.9532,7.8764 65.1429,6.5611 63.3325,7.8764 64.0240,5.7482 62.2136,4.4328 64.4514,4.4328" fill="#FFFFFF" />
<polygon points="12.6667,7.6892 13.3582,9.8175 15.5959,9.8175 13.7855,11.1328 14.4770,13.2610 12.6667,11.9457 10.8563,13.2610 11.5478,11.1328 9.7374,9.8175 11.9752,9.8175" fill="#FFFFFF" />
<polygon points="25.3333,7.6892 26.0248,9.8175 28.2626,9.8175 26.4522,11.1328 27.1437,13.2610 25.3333,11.9457 23.5230,13.2610 24.2145,11.1328 22.4041,9.8175 24.6418,9.8175" fill="#FFFFFF" />
<polygon points="38.0000,7.6892 38.6915,9.8175 40.9293,9.8175 39.1189,11.1328 39.8104,13.2610 38.0000,11.9457 36.1896,13.2610 36.8811,11.1328 35.0707,9.8175 37.3085,9.8175" fill="#FFFFFF" />
<polygon points="50.6667,7.6892 51.3582,9.8175 53.5959,9.8175 51.7855,11.1328 52.4770,13.2610 50.6667,11.9457 48.8563,13.2610 49.5478,11.1328 47.7374,9.8175 49.9752,9.8175" fill="#FFFFFF" />
<polygon points="63.3333,7.6892 64.0248,9.8175 66.2626,9.8175 64.4522,11.1328 65.1437,13.2610 63.3333,11.9457 61.5230,13.2610 62.2145,11.1328 60.4041,9.8175 62.6418,9.8175" fill="#FFFFFF" />
<polygon points="10.8571,13.0738 11.5486,15.2021 13.7864,15.2021 11.9760,16.5174 12.6675,18.6456 10.8571,17.3303 9.0468,18.6456 9.7383,16.5174 7.9279,15.2021 10.1656,15.2021" fill="#FFFFFF" />
<polygon points="21.7143,13.0738 22.4058,15.2021 24.6435,15.2021 22.8332,16.5174 23.5247,18.6456 21.7143,17.3303 19.9039,18.6456 20.5954,16.5174 18.7850,15.2021 21.0228,15.2021" fill="#FFFFFF" />
<polygon points="32.5714,13.0738 33.2629,15.2021 35.5007,15.2021 33.6903,16.5174 34.3818,18.6456 32.5714,17.3303 30.7610,18.6456 31.4526,16.5174 29.6422,15.2021 31.8799,15.2021" fill="#FFFFFF" />
<polygon points="43.4286,13.0738 44.1201,15.2021 46.3578,15.2021 44.5474,16.5174 45.2390,18.6456 43.4286,17.3303 41.6182,18.6456 42.3097,16.5174 40.4993,15.2021 42.7371,15.2021" fill="#FFFFFF" />
<polygon points="54.2857,13.0738 54.9772,15.2021 57.2150,15.2021 55.4046,16.5174 56.0961,18.6456 54.2857,17.3303 52.4753,18.6456 53.1668,16.5174 51.3565,15.2021 53.5942,15.2021" fill="#FFFFFF" />
<polygon points="65.1429,13.0738 65.8344,15.2021 68.0721,15.2021 66.2617,16.5174 66.9532,18.6456 65.1429,17.3303 63.3325,18.6456 64.0240,16.5174 62.2136,15.2021 64.4514,15.2021" fill="#FFFFFF" />
<polygon points="12.6667,18.4585 13.3582,20.5867 15.5959,20.5867 13.7855,21.9020 14.4770,24.0302 12.6667,22.7149 10.8563,24.0302 11.5478,21.9020 9.7374,20.5867 11.9752,20.5867" fill="#FFFFFF" />
<polygon points="25.3333,18.4585 26.0248,20.5867 28.2626,20.5867 26.4522,21.9020 27.1437,24.0302 25.3333,22.7149 23.5230,24.0302 24.2145,21.9020 22.4041,20.5867 24.6418,20.5867" fill="#FFFFFF" />
<polygon points="38.0000,18.4585 38.6915,20.5867 40.9293,20.5867 39.1189,21.9020 39.8104,24.0302 38.0000,22.7149 36.1896,24.0302 36.8811,21.9020 35.0707,20.5867 37.3085,20.5867" fill="#FFFFFF" />
<polygon points="50.6667,18.4585 51.3582,20.5867 53.5959,20.5867 51.7855,21.9020 52.4770,24.0302 50.6667,22.7149 48.8563,24.0302 49.5478,21.9020 47.7374,20.5867 49.9752,20.5867" fill="#FFFFFF" />
<polygon points="63.3333,18.4585 64.0248,20.5867 66.2626,20.5867 64.4522,21.9020 65.1437,24.0302 63.3333,22.7149 61.5230,24.0302 62.2145,21.9020 60.4041,20.5867 62.6418,20.5867" fill="#FFFFFF" />
<polygon points="10.8571,23.8431 11.5486,25.9713 13.7864,25.9713 11.9760,27.2866 12.6675,29.4148 10.8571,28.0995 9.0468,29.4148 9.7383,27.2866 7.9279,25.9713 10.1656,25.9713" fill="#FFFFFF" />
<polygon points="21.7143,23.8431 22.4058,25.9713 24.6435,25.9713 22.8332,27.2866 23.5247,29.4148 21.7143,28.0995 19.9039,29.4148 20.5954,27.2866 18.7850,25.9713 21.0228,25.9713" fill="#FFFFFF" />
<polygon points="32.5714,23.8431 33.2629,25.9713 35.5007,25.9713 33.6903,27.2866 34.3818,29.4148 32.5714,28.0995 30.7610,29.4148 31.4526,27.2866 29.6422,25.9713 31.8799,25.9713" fill="#FFFFFF" />
<polygon points="43.4286,23.8431 44.1201,25.9713 46.3578,25.9713 44.5474,27.2866 45.2390,29.4148 43.4286,28.0995 41.6182,29.4148 42.3097,27.2866 40.4993,25.9713 42.7371,25.9713" fill="#FFFFFF" />
<polygon points="54.2857,23.8431 54.9772,25.9713 57.2150,25.9713 55.4046,27.2866 56.0961,29.4148 54.2857,28.0995 52.4753,29.4148 53.1668,27.2866 51.3565,25.9713 53.5942,25.9713" fill="#FFFFFF" />
<polygon points="65.1429,23.8431 65.8344,25.9713 68.0721,25.9713 66.2617,27.2866 66.9532,29.4148 65.1429,28.0995 63.3325,29.4148 64.0240,27.2866 62.2136,25.9713 64.4514,25.9713" fill="#FFFFFF" />
<polygon points="12.6667,29.2277 13.3582,31.3559 15.5959,31.3559 13.7855,32.6712 14.4770,34.7995 12.6667,33.4841 10.8563,34.7995 11.5478,32.6712 9.7374,31.3559 11.9752,31.3559" fill="#FFFFFF" />
<polygon points="25.3333,29.2277 26.0248,31.3559 28.2626,31.3559 26.4522,32.6712 27.1437,34.7995 25.3333,33.4841 23.5230,34.7995 24.2145,32.6712 22.4041,31.3559 24.6418,31.3559" fill="#FFFFFF" />
<polygon points="38.0000,29.2277 38.6915,31.3559 40.9293,31.3559 39.1189,32.6712 39.8104,34.7995 38.0000,33.4841 36.1896,34.7995 36.8811,32.6712 35.0707,31.3559 37.3085,31.3559" fill="#FFFFFF" />
<polygon points="50.6667,29.2277 51.3582,31.3559 53.5959,31.3559 51.7855,32.6712 52.4770,34.7995 50.6667,33.4841 48.8563,34.7995 49.5478,32.6712 47.7374,31.3559 49.9752,31.3559" fill="#FFFFFF" />
<polygon points="63.3333,29.2277 64.0248,31.3559 66.2626,31.3559 64.4522,32.6712 65.1437,34.7995 63.3333,33.4841 61.5230,34.7995 62.2145,32.6712 60.4041,31.3559 62.6418,31.3559" fill="#FFFFFF" />
<polygon points="10.8571,34.6123 11.5486,36.7405 13.7864,36.7405 11.9760,38.0559 12.6675,40.1841 10.8571,38.8688 9.0468,40.1841 9.7383,38.0559 7.9279,36.7405 10.1656,36.7405" fill="#FFFFFF" />
<polygon points="21.7143,34.6123 22.4058,36.7405 24.6435,36.7405 22.8332,38.0559 23.5247,40.1841 21.7143,38.8688 19.9039,40.1841 20.5954,38.0559 18.7850,36.7405 21.0228,36.7405" fill="#FFFFFF" />
<polygon points="32.5714,34.6123 33.2629,36.7405 35.5007,36.7405 33.6903,38.0559 34.3818,40.1841 32.5714,38.8688 30.7610,40.1841 31.4526,38.0559 29.6422,36.7405 31.8799,36.7405" fill="#FFFFFF" />
<polygon points="43.4286,34.6123 44.1201,36.7405 46.3578,36.7405 44.5474,38.0559 45.2390,40.1841 43.4286,38.8688 41.6182,40.1841 42.3097,38.0559 40.4993,36.7405 42.7371,36.7405" fill="#FFFFFF" />
<polygon points="54.2857,34.6123 54.9772,36.7405 57.2150,36.7405 55.4046,38.0559 56.0961,40.1841 54.2857,38.8688 52.4753,40.1841 53.1668,38.0559 51.3565,36.7405 53.5942,36.7405" fill="#FFFFFF" />
<polygon points="65.1429,34.6123 65.8344,36.7405 68.0721,36.7405 66.2617,38.0559 66.9532,40.1841 65.1429,38.8688 63.3325,40.1841 64.0240,38.0559 62.2136,36.7405 64.4514,36.7405" fill="#FFFFFF" />
<polygon points="12.6667,39.9969 13.3582,42.1252 15.5959,42.1252 13.7855,43.4405 14.4770,45.5687 12.6667,44.2534 10.8563,45.5687 11.5478,43.4405 9.7374,42.1252 11.9752,42.1252" fill="#FFFFFF" />
<polygon points="25.3333,39.9969 26.0248,42.1252 28.2626,42.1252 26.4522,43.4405 27.1437,45.5687 25.3333,44.2534 23.5230,45.5687 24.2145,43.4405 22.4041,42.1252 24.6418,42.1252" fill="#FFFFFF" />
<polygon points="38.0000,39.9969 38.6915,42.1252 40.9293,42.1252 39.1189,43.4405 39.8104,45.5687 38.0000,44.2534 36.1896,45.5687 36.8811,43.4405 35.0707,42.1252 37.3085,42.1252" fill="#FFFFFF" />
<polygon points="50.6667,39.9969 51.3582,42.1252 53.5959,42.1252 51.7855,43.4405 52.4770,45.5687 50.6667,44.2534 48.8563,45.5687 49.5478,43.4405 47.7374,42.1252 49.9752,42.1252" fill="#FFFFFF" />
<polygon points="63.3333,39.9969 64.0248,42.1252 66.2626,42.1252 64.4522,43.4405 65.1437,45.5687 63.3333,44.2534 61.5230,45.5687 62.2145,43.4405 60.4041,42.1252 62.6418,42.1252" fill="#FFFFFF" />
<polygon points="10.8571,45.3815 11.5486,47.5098 13.7864,47.5098 11.9760,48.8251 12.6675,50.9533 10.8571,49.6380 9.0468,50.9533 9.7383,48.8251 7.9279,47.5098 10.1656,47.5098" fill="#FFFFFF" />
<polygon points="21.7143,45.3815 22.4058,47.5098 24.6435,47.5098 22.8332,48.8251 23.5247,50.9533 21.7143,49.6380 19.9039,50.9533 20.5954,48.8251 18.7850,47.5098 21.0228,47.5098" fill="#FFFFFF" />
<polygon points="32.5714,45.3815 33.2629,47.5098 35.5007,47.5098 33.6903,48.8251 34.3818,50.9533 32.5714,49.6380 30.7610,50.9533 31.4526,48.8251 29.6422,47.5098 31.8799,47.5098" fill="#FFFFFF" />
<polygon points="43.4286,45.3815 44.1201,47.5098 46.3578,47.5098 44.5474,48.8251 45.2390,50.9533 43.4286,49.6380 41.6182,50.9533 42.3097,48.8251 40.4993,47.5098 42.7371,47.5098" fill="#FFFFFF" />
<polygon points="54.2857,45.3815 54.9772,47.5098 57.2150,47.5098 55.4046,48.8251 56.0961,50.9533 54.2857,49.6380 52.4753,50.9533 53.1668,48.8251 51.3565,47.5098 53.5942,47.5098" fill="#FFFFFF" />
<polygon points="65.1429,45.3815 65.8344,47.5098 68.0721,47.5098 66.2617,48.8251 66.9532,50.9533 65.1429,49.6380 63.3325,50.9533 64.0240,48.8251 62.2136,47.5098 64.4514,47.5098" fill="#FFFFFF" />
</svg>